<?xml version="1.0" encoding="utf-8"?>
<!-- Generator: Adobe Illustrator 22.1.0, SVG Export Plug-In . SVG Version: 6.00 Build 0)  -->
<svg version="1.1" id="Layer_1" xmlns="http://www.w3.org/2000/svg" xmlns:xlink="http://www.w3.org/1999/xlink" x="0px" y="0px"
	 viewBox="0 0 360.8 448.5" style="enable-background:new 0 0 360.8 448.5;" xml:space="preserve">
<style type="text/css">
	.st0{stroke:#000000;stroke-miterlimit:10;}
</style>
<title>SethIndustriesIcon</title>
<path class="st0" d="M170.1,385.1l10.3,62.3c0,0,62.5-62.6,73.9-72.9s64.5-45.8,64.5-45.8l-10.9-34.1c-0.9-2.2-2.1-3.3-4-2.6
	c-9.4,3.4-35.4,12.9-42.6,16.4c-8.8,4.3-50.4,40.5-50.4,40.5L171.2,379C169.5,380.5,169,383,170.1,385.1z"/>
<path class="st0" d="M349.5,36c0,0-28,21-46,34s-36,18-52,31s-32,36-32,36c6.2-15,15.7-28.4,28-39c8.6-7.3,21.1-15.7,29.6-21.7
	c7.4-5.3,9.8-4.8,19.4-12.3c18-14,2-63,2-63s-31,36-41,44c-11.3,9-30.1,19.8-49,36c-28,24-29,52-29,52s-52,27-63,33s-2,23-11,38
	c-4,6.7-24,19-46,34s-59,53-59,57s6,20,6,20s10,3,16,4s43,2,53,0s74.7-10.7,78-12c5-2,51-11,65-24s27-45,27-45s-11,36-24,50
	s-50,20-50,20s22.3,29.7,24.8,43.5l10.5-8.5c0,0,41.6-36.2,50.4-40.5c5.5-2.6,21.7-8.8,33.3-13c-0.8-0.8-1.5-1.6-2.1-2.5
	c-4-6-8-32-7-39s19-65,19-65c-5.7,2.6-11.8,4.3-18,5c-6.3,0.6-12.7,0.6-19,0c0,0,26-5,38-10c9.8-4.1,29-18,37-33s13-18,20-53
	S349.5,36,349.5,36z M186.5,202c-13,3-27,7-27,7s-24.5,8.4-31,10c-4,1-13,9-13,9s3-6,7-9c3-2,7-7,7-7s-2-15,0-18s20-4,27-4
	s24,4,36,2c6.2-1,21-6,21-6S193.9,200.3,186.5,202z"/>
</svg>
